<?xml version="1.0" encoding="utf-8"?>
<!-- Generator: Adobe Illustrator 24.3.0, SVG Export Plug-In . SVG Version: 6.00 Build 0)  -->
<svg version="1.1" id="Layer_1" xmlns="http://www.w3.org/2000/svg" xmlns:xlink="http://www.w3.org/1999/xlink" x="0px" y="0px"
	 viewBox="0 0 1920 1080" style="enable-background:new 0 0 1920 1080;" xml:space="preserve">
<style type="text/css">
	.st0{fill:#FFFFFF; cursor: pointer;}
</style>
<image style="overflow:visible;enable-background:new    ;" width="1280" height="720" xlink:href="C519F7B99E041E27.png"  transform="matrix(1.5 0 0 1.5 0 0)">
</image>
<g>
	<circle id="Seattle" class="st0" cx="335" cy="171" r="66.5"/>
	<path d="M335,105c36.4,0,66,29.6,66,66s-29.6,66-66,66s-66-29.6-66-66S298.6,105,335,105 M335,104c-37,0-67,30-67,67s30,67,67,67
		s67-30,67-67S372,104,335,104L335,104z"/>
</g>
<g>
	<circle id="Los_Angeles" class="st0" cx="317.5" cy="549.5" r="62"/>
	<path d="M317.5,488c33.9,0,61.5,27.6,61.5,61.5S351.4,611,317.5,611S256,583.4,256,549.5S283.6,488,317.5,488 M317.5,487
		c-34.5,0-62.5,28-62.5,62.5s28,62.5,62.5,62.5s62.5-28,62.5-62.5S352,487,317.5,487L317.5,487z"/>
</g>
<g>
	<circle id="Chicago" class="st0" cx="1296" cy="362.3" r="62"/>
	<path d="M1296,300.8c33.9,0,61.5,27.6,61.5,61.5s-27.6,61.5-61.5,61.5s-61.5-27.6-61.5-61.5S1262.1,300.8,1296,300.8 M1296,299.8
		c-34.5,0-62.5,28-62.5,62.5s28,62.5,62.5,62.5s62.5-28,62.5-62.5S1330.5,299.8,1296,299.8L1296,299.8z"/>
</g>
<g>
	<circle id="San_Jose" class="st0" cx="255.5" cy="362.5" r="62"/>
	<path d="M255.5,301c33.9,0,61.5,27.6,61.5,61.5S289.4,424,255.5,424S194,396.4,194,362.5S221.6,301,255.5,301 M255.5,300
		c-34.5,0-62.5,28-62.5,62.5s28,62.5,62.5,62.5s62.5-28,62.5-62.5S290,300,255.5,300L255.5,300z"/>
</g>
<g>
	<circle id="New_York" class="st0" cx="1712.6" cy="299.8" r="62"/>
	<path d="M1712.6,238.3c33.9,0,61.5,27.6,61.5,61.5s-27.6,61.5-61.5,61.5s-61.5-27.6-61.5-61.5S1678.7,238.3,1712.6,238.3
		 M1712.6,237.3c-34.5,0-62.5,28-62.5,62.5s28,62.5,62.5,62.5s62.5-28,62.5-62.5S1747.1,237.3,1712.6,237.3L1712.6,237.3z"/>
</g>
<g>
	<circle id="Atlanta" class="st0" cx="1357.5" cy="611.5" r="62"/>
	<path d="M1357.5,550c33.9,0,61.5,27.6,61.5,61.5s-27.6,61.5-61.5,61.5s-61.5-27.6-61.5-61.5S1323.6,550,1357.5,550 M1357.5,549
		c-34.5,0-62.5,28-62.5,62.5s28,62.5,62.5,62.5s62.5-28,62.5-62.5S1392,549,1357.5,549L1357.5,549z"/>
</g>
<g>
	<circle id="Philadelphia" class="st0" cx="1606.7" cy="386.5" r="62"/>
	<path d="M1606.7,325c33.9,0,61.5,27.6,61.5,61.5s-27.6,61.5-61.5,61.5s-61.5-27.6-61.5-61.5S1572.8,325,1606.7,325 M1606.7,324
		c-34.5,0-62.5,28-62.5,62.5s28,62.5,62.5,62.5s62.5-28,62.5-62.5S1641.2,324,1606.7,324L1606.7,324z"/>
</g>
<g>
	<circle id="Dallas" class="st0" cx="1041.1" cy="600.5" r="62"/>
	<path d="M1041.1,539c33.9,0,61.5,27.6,61.5,61.5S1075,662,1041.1,662s-61.5-27.6-61.5-61.5S1007.2,539,1041.1,539 M1041.1,538
		c-34.5,0-62.5,28-62.5,62.5s28,62.5,62.5,62.5s62.5-28,62.5-62.5S1075.7,538,1041.1,538L1041.1,538z"/>
</g>
<g>
	<ellipse id="San_Antonio" transform="matrix(0.1602 -0.9871 0.9871 0.1602 49.2813 1695.9232)" class="st0" cx="1021.3" cy="819" rx="62" ry="62"/>
	<path d="M1021.3,757.5c33.9,0,61.5,27.6,61.5,61.5s-27.6,61.5-61.5,61.5s-61.5-27.6-61.5-61.5S987.3,757.5,1021.3,757.5
		 M1021.3,756.5c-34.5,0-62.5,28-62.5,62.5s28,62.5,62.5,62.5c34.5,0,62.5-28,62.5-62.5S1055.8,756.5,1021.3,756.5L1021.3,756.5z"/>
</g>
<g>
	<circle id="Houston" class="st0" cx="1138.5" cy="756.5" r="62"/>
	<path d="M1138.5,695c33.9,0,61.5,27.6,61.5,61.5s-27.6,61.5-61.5,61.5s-61.5-27.6-61.5-61.5S1104.6,695,1138.5,695 M1138.5,694
		c-34.5,0-62.5,28-62.5,62.5s28,62.5,62.5,62.5s62.5-28,62.5-62.5S1173,694,1138.5,694L1138.5,694z"/>
</g>
<g>
	
		<ellipse id="Austin" transform="matrix(0.7071 -0.7071 0.7071 0.7071 -214.4268 890.8961)" class="st0" cx="968.2" cy="704.3" rx="62" ry="62"/>
	<path d="M968.2,642.8c33.9,0,61.5,27.6,61.5,61.5s-27.6,61.5-61.5,61.5s-61.5-27.6-61.5-61.5S934.3,642.8,968.2,642.8 M968.2,641.8
		c-34.5,0-62.5,28-62.5,62.5s28,62.5,62.5,62.5s62.5-28,62.5-62.5S1002.7,641.8,968.2,641.8L968.2,641.8z"/>
</g>
<g>
	<circle id="Phoenix" class="st0" cx="637.5" cy="612" r="62"/>
	<path d="M637.5,550.5c33.9,0,61.5,27.6,61.5,61.5s-27.6,61.5-61.5,61.5S576,645.9,576,612S603.6,550.5,637.5,550.5 M637.5,549.5
		c-34.5,0-62.5,28-62.5,62.5s28,62.5,62.5,62.5s62.5-28,62.5-62.5S672,549.5,637.5,549.5L637.5,549.5z"/>
</g>
</svg>
